<?xml version="1.0" standalone="no"?>
<!DOCTYPE svg PUBLIC "-//W3C//DTD SVG 20010904//EN"
 "http://www.w3.org/TR/2001/REC-SVG-20010904/DTD/svg10.dtd">
<svg version="1.0" xmlns="http://www.w3.org/2000/svg"
 width="966.000000pt" height="75.000000pt" viewBox="0 0 966.000000 75.000000"
 preserveAspectRatio="xMidYMid meet">
<metadata>
Created by potrace 1.16, written by Peter Selinger 2001-2019
</metadata>
<g transform="translate(0.000000,75.000000) scale(0.100000,-0.100000)"
fill="#000000" stroke="none">
<path d="M193 734 c-4 -10 -25 -14 -83 -14 -96 0 -104 -7 -90 -82 7 -38 7 -64
0 -82 -13 -35 -13 -76 0 -76 6 0 10 15 10 33 l0 32 68 0 c47 0 77 6 100 18 20
12 32 15 32 8 0 -8 6 -9 19 -1 11 5 26 8 33 5 7 -3 31 1 52 9 35 12 37 15 20
24 -17 10 -16 11 9 12 15 0 27 6 27 13 0 9 2 9 8 0 14 -22 47 -8 50 20 2 17
10 27 20 27 164 4 283 13 299 23 22 14 143 17 169 5 19 -9 30 -9 43 -1 12 8
23 8 37 0 10 -6 24 -12 29 -14 52 -12 54 -12 48 4 -5 12 -2 15 10 10 9 -3 17
-2 17 3 0 6 9 10 20 10 12 0 20 -7 20 -17 0 -15 2 -14 16 3 8 10 13 13 9 7 -4
-9 1 -13 14 -13 25 0 28 -15 5 -24 -9 -4 -14 -9 -11 -12 3 -3 17 2 31 11 14 9
31 13 37 9 7 -4 9 -3 5 4 -3 6 -2 13 3 16 5 3 11 0 14 -8 4 -10 19 -14 50 -11
25 1 51 -2 58 -7 10 -7 8 -8 -8 -5 -13 3 -23 1 -23 -4 0 -5 16 -9 35 -9 19 0
35 4 35 9 0 5 14 8 30 7 27 -1 29 -2 13 -13 -9 -7 -22 -13 -29 -13 -7 0 -15
-3 -17 -7 -3 -5 14 -7 36 -6 55 2 54 2 37 13 -12 8 -10 10 8 10 13 0 20 4 17
10 -3 6 4 10 16 10 18 0 19 -2 9 -15 -19 -23 -3 -18 21 6 l21 21 32 -31 c33
-32 70 -45 46 -16 -8 9 -9 15 -2 15 6 0 13 -4 16 -9 8 -12 46 -21 46 -10 0 5
-6 9 -14 9 -8 0 -16 7 -20 15 -6 16 9 21 19 5 3 -5 13 -6 22 -3 11 4 14 3 9
-5 -4 -7 -2 -12 3 -12 6 0 11 -8 12 -17 0 -17 1 -17 7 -1 5 12 12 14 21 9 7
-5 11 -13 8 -17 -8 -13 44 -10 69 3 12 7 26 8 34 3 8 -5 21 -5 31 1 27 14 34
11 16 -8 -15 -17 -12 -18 44 -18 42 0 58 3 55 11 -3 7 4 14 15 17 15 4 19 2
15 -8 -8 -21 36 -14 55 9 10 12 27 19 50 18 30 -1 32 1 17 12 -21 15 -23 26
-7 26 7 0 21 10 32 23 19 21 20 21 15 1 -5 -21 0 -24 45 -25 10 0 21 -7 24
-15 3 -8 12 -14 20 -14 13 0 13 3 3 15 -10 12 -10 15 4 15 9 0 16 5 16 10 0 6
-5 10 -11 10 -8 0 -8 4 0 14 9 11 8 15 -5 20 -24 9 -42 7 -26 -3 8 -5 12 -17
10 -27 -4 -16 -7 -15 -18 9 -12 24 -32 38 -29 20 6 -35 -15 -46 -24 -13 -5 21
-27 28 -27 10 0 -7 -6 -7 -19 0 -26 14 -545 14 -536 0 3 -5 1 -10 -4 -10 -6 0
-11 4 -11 9 0 6 -282 10 -726 10 -618 -1 -726 -3 -731 -15z"/>
<path d="M8970 738 c0 -6 7 -7 16 -4 9 3 21 3 27 -1 6 -4 27 -8 47 -9 44 -3
75 -10 97 -23 15 -8 11 -10 -20 -11 -23 0 -36 4 -32 10 3 6 1 10 -4 10 -6 0
-11 -4 -11 -9 0 -5 -8 -12 -17 -14 -19 -5 -5 -7 67 -10 22 -1 44 -11 59 -26
19 -19 25 -21 32 -10 7 12 11 12 18 1 4 -7 14 -15 22 -16 8 -2 26 -8 40 -14
26 -10 69 -6 79 8 3 4 28 0 57 -10 29 -9 50 -13 47 -8 -3 4 -1 8 5 8 5 0 12
-4 15 -8 3 -5 22 -9 42 -10 73 -3 74 -4 74 -98 0 -86 13 -112 24 -49 4 19 6
82 5 140 -2 83 -5 105 -16 105 -8 0 -12 4 -9 9 3 5 -11 12 -32 16 -20 4 -40
12 -44 18 -5 8 -55 13 -144 16 -97 2 -134 0 -130 -8 4 -6 2 -11 -3 -11 -6 0
-11 4 -11 10 0 6 -59 9 -150 9 -95 -1 -150 -5 -150 -11z"/>
<path d="M6275 710 c2 -16 -1 -30 -6 -30 -6 0 -7 -9 -4 -22 6 -19 5 -21 -6
-10 -17 16 -26 15 -33 -4 -3 -8 -2 -12 4 -9 6 3 10 1 10 -4 0 -6 12 -11 26
-11 14 0 33 -4 44 -10 14 -7 17 -6 16 8 -1 11 7 18 24 19 23 2 23 2 5 -7 -18
-9 -18 -9 5 -7 14 1 24 8 23 15 -2 6 2 12 7 12 6 0 10 -6 10 -14 0 -8 7 -17
16 -20 24 -9 26 -8 19 14 -4 14 -2 20 9 20 13 0 36 28 36 44 0 3 -21 7 -47 8
l-48 1 45 8 c42 7 41 7 -17 5 -34 -1 -60 1 -57 6 3 4 -6 7 -20 6 -15 -1 -26
-6 -26 -10 0 -4 -5 -8 -11 -8 -6 0 -9 7 -5 15 3 9 0 15 -9 15 -9 0 -12 -9 -10
-30z"/>
<path d="M0 290 c0 -32 4 -50 12 -50 9 0 9 -3 0 -12 -15 -15 -16 -58 -1 -58 8
0 8 -5 -1 -15 -10 -12 -9 -20 5 -41 14 -22 15 -28 4 -35 -11 -6 -11 -13 -3
-26 9 -14 27 -19 90 -21 54 -2 81 -7 86 -17 7 -11 177 -13 1027 -14 887 -1
1020 1 1031 14 13 15 35 10 25 -6 -7 -10 35 -12 59 -3 13 5 14 9 5 20 -8 10
-8 14 0 14 6 0 11 5 11 10 0 6 -7 10 -16 10 -14 0 -14 3 -4 15 10 12 10 15 -3
15 -8 0 -17 -6 -20 -14 -3 -8 -14 -15 -24 -15 -41 -1 -51 -5 -46 -18 4 -9 0
-11 -11 -7 -9 3 -16 10 -16 15 0 5 -7 9 -15 9 -20 0 -19 10 3 26 15 11 13 13
-17 12 -23 -1 -40 6 -50 18 -19 23 -63 30 -55 9 4 -10 0 -12 -15 -8 -11 3 -18
10 -15 17 3 8 -13 11 -55 11 -56 0 -59 -1 -44 -17 18 -20 11 -23 -16 -9 -10 6
-23 6 -31 1 -8 -5 -22 -4 -34 3 -25 13 -77 16 -69 3 3 -4 -1 -12 -8 -17 -9 -5
-16 -3 -21 9 -6 16 -7 16 -7 0 -1 -10 -6 -18 -12 -18 -5 0 -7 -5 -3 -12 5 -8
2 -9 -9 -5 -9 3 -19 2 -22 -3 -10 -16 -25 -11 -19 5 4 8 12 15 20 15 8 0 14 4
14 9 0 11 -38 2 -46 -10 -3 -5 -10 -9 -16 -9 -7 0 -6 6 2 15 24 29 -13 16 -46
-16 l-32 -31 -21 21 c-24 24 -40 29 -21 6 10 -13 9 -15 -9 -15 -12 0 -19 5
-16 10 3 6 -4 10 -17 10 -18 0 -20 2 -8 10 17 11 18 11 -37 13 -22 1 -39 -1
-36 -6 2 -4 10 -7 17 -7 7 0 20 -6 30 -13 16 -12 15 -13 -11 -13 -15 0 -30 3
-33 7 -10 14 -70 15 -70 0 0 -5 10 -7 23 -4 16 3 18 2 8 -5 -7 -5 -35 -8 -62
-6 -39 3 -49 0 -49 -12 0 -8 -5 -12 -10 -9 -6 4 -8 9 -6 13 2 4 -7 8 -20 8
-13 1 -24 -2 -24 -6 0 -4 -8 -7 -18 -6 -10 0 -16 -5 -14 -14 1 -10 -2 -9 -13
4 -13 17 -15 18 -15 3 0 -10 -8 -17 -20 -17 -11 0 -20 4 -20 10 0 5 -8 6 -17
3 -12 -5 -15 -2 -10 10 6 16 4 16 -48 4 -5 -2 -19 -8 -29 -14 -14 -8 -25 -8
-37 0 -13 8 -24 8 -43 -1 -26 -12 -147 -9 -169 5 -16 10 -135 19 -299 23 -10
0 -18 10 -20 27 -3 28 -36 42 -50 20 -6 -9 -8 -9 -8 1 0 6 -12 12 -27 13 -16
0 -22 3 -15 6 23 9 12 25 -14 19 -17 -5 -23 -3 -19 4 7 11 -4 13 -47 10 -18
-1 -28 4 -28 12 0 9 -2 10 -8 1 -5 -9 -16 -9 -45 0 -20 7 -37 14 -37 17 0 3
-32 5 -70 4 -49 0 -67 3 -60 10 5 5 10 36 10 68 0 45 -3 58 -15 58 -11 0 -15
-12 -15 -50z"/>
<path d="M9630 260 c1 -8 2 -32 1 -52 -1 -40 -12 -48 -75 -50 -20 -1 -39 -5
-42 -10 -3 -4 -10 -8 -15 -8 -6 0 -8 4 -5 8 3 5 -18 1 -47 -8 -29 -10 -54 -14
-57 -10 -10 14 -53 18 -79 8 -14 -6 -32 -12 -40 -14 -8 -1 -18 -9 -22 -16 -7
-11 -11 -11 -18 1 -7 11 -13 9 -32 -10 -15 -15 -37 -25 -59 -26 -72 -3 -86 -5
-67 -10 9 -2 17 -9 17 -14 0 -5 5 -9 11 -9 5 0 7 4 4 10 -4 6 9 10 32 10 31
-1 35 -3 20 -11 -22 -13 -53 -20 -97 -23 -20 -1 -41 -5 -47 -9 -6 -4 -18 -4
-27 -1 -9 3 -16 2 -16 -4 0 -6 55 -10 150 -11 91 0 150 3 150 9 0 6 5 10 11
10 5 0 7 -4 4 -10 -4 -6 41 -10 127 -10 l133 0 -32 20 c-18 11 -33 23 -33 26
0 12 83 -4 92 -18 10 -15 3 35 -7 52 -12 19 6 31 21 15 18 -17 44 -20 44 -4 0
5 -4 7 -10 4 -5 -3 -10 -2 -10 3 0 6 7 12 15 16 8 3 15 16 15 30 0 14 5 28 10
31 15 9 11 57 -6 80 -11 14 -15 15 -14 5z"/>
<path d="M6310 140 c-8 -5 -27 -10 -42 -10 -16 0 -28 -5 -28 -11 0 -5 -4 -7
-10 -4 -6 3 -7 -1 -4 -9 7 -19 16 -20 33 -3 11 10 12 8 6 -10 -3 -14 -2 -23 4
-23 5 0 8 -13 6 -30 -2 -21 1 -30 10 -30 9 0 12 6 9 15 -4 8 -1 15 5 15 6 0
11 -5 11 -11 0 -5 4 -7 10 -4 6 3 7 -1 4 -10 -5 -12 0 -15 25 -13 17 1 31 5
31 8 0 4 7 7 15 7 8 0 12 -4 9 -9 -3 -4 2 -8 10 -8 9 0 16 5 16 11 0 6 13 8
35 5 31 -5 34 -4 26 12 -5 9 -14 29 -20 45 -6 15 -18 27 -26 27 -12 0 -15 6
-10 22 6 17 4 20 -10 15 -9 -4 -19 -7 -21 -7 -2 0 -4 -7 -4 -15 0 -8 -4 -15
-10 -15 -5 0 -9 6 -7 12 1 7 -9 14 -23 15 -23 2 -23 2 -5 -7 18 -9 18 -9 -5
-7 -17 1 -25 8 -24 20 1 9 1 17 0 17 0 0 -8 -5 -16 -10z"/>
<path d="M6792 114 c-12 -8 -20 -19 -17 -24 3 -4 -2 -10 -10 -14 -18 -6 -30
10 -13 18 7 3 4 4 -7 3 -11 -1 -23 -6 -27 -12 -5 -7 -11 -6 -15 0 -5 6 -31 11
-59 10 -40 0 -50 3 -46 14 4 11 1 11 -18 1 -16 -9 -19 -14 -10 -20 21 -13 0
-32 -32 -28 -34 5 -48 -13 -28 -37 11 -14 15 -14 36 0 23 15 57 16 70 2 4 -4
0 -7 -9 -7 -9 0 -17 -4 -17 -9 0 -14 152 -13 162 1 6 10 8 10 8 1 0 -7 5 -13
10 -13 6 0 10 9 10 20 0 11 5 20 10 20 6 0 10 -4 10 -10 0 -5 7 -10 15 -10 8
0 15 4 15 9 0 5 12 12 28 16 l27 7 -23 9 c-13 5 -26 18 -29 28 -3 13 -10 18
-21 13 -15 -5 -15 -4 -3 11 17 21 12 22 -17 1z"/>
</g>
</svg>
